/* XPM */
static char *_84670a6c99e4c1de93f224c82d50a11eQWLrwsCgNye1VP9[] = {
/* columns rows colors chars-per-pixel */
"64 64 190 2 ",
"   c #030101",
".  c #0A0502",
"X  c #0C0A04",
"o  c #040408",
"O  c #0C0B0B",
"+  c #130600",
"@  c #140C04",
"#  c #1B0E04",
"$  c #110E0A",
"%  c #15110C",
"&  c #1C130D",
"*  c #181A0F",
"=  c #161513",
"-  c #1A1613",
";  c #1D1A15",
":  c #1E1D19",
">  c #2F1C0E",
",  c #321C0F",
"<  c #221C15",
"1  c #2C1E13",
"2  c #211E1A",
"3  c #321F12",
"4  c #242117",
"5  c #2C2117",
"6  c #24221C",
"7  c #2B241D",
"8  c #2C281E",
"9  c #342315",
"0  c #3C2615",
"q  c #3E2916",
"w  c #33261C",
"e  c #3A271A",
"r  c #34291D",
"t  c #3B2A1C",
"y  c #252421",
"u  c #2B2622",
"i  c #2D2A24",
"p  c #2E2C29",
"a  c #312722",
"s  c #332B23",
"d  c #3B2C23",
"f  c #322D2A",
"g  c #392E2A",
"h  c #353126",
"j  c #3B3226",
"k  c #35322C",
"l  c #3B342C",
"z  c #3D392E",
"x  c #352F31",
"c  c #363431",
"v  c #3A3531",
"b  c #373934",
"n  c #3D3A33",
"m  c #3E3D39",
"M  c #422615",
"N  c #422B16",
"B  c #42261A",
"V  c #432C1B",
"C  c #482D1A",
"Z  c #45301D",
"A  c #4B341F",
"S  c #412E22",
"D  c #443223",
"F  c #4B3523",
"G  c #4D3924",
"H  c #44352A",
"J  c #4C372A",
"K  c #433A2D",
"L  c #4D3A2B",
"P  c #513623",
"I  c #523A25",
"U  c #523729",
"Y  c #513B2B",
"T  c #403732",
"R  c #433D34",
"E  c #4A3E33",
"W  c #423E39",
"Q  c #3F4038",
"!  c #46412D",
"~  c #454135",
"^  c #4A4335",
"/  c #4E4934",
"(  c #47443D",
")  c #47443F",
"_  c #45423A",
"`  c #48443B",
"'  c #48433F",
"]  c #4A463D",
"[  c #48453E",
"{  c #4B473E",
"}  c #4C453D",
"|  c #4B443B",
" . c #4C483F",
".. c #4F4B3F",
"X. c #4D493C",
"o. c #524636",
"O. c #544937",
"+. c #51473D",
"@. c #504A3E",
"#. c #514B3D",
"$. c #524A3D",
"%. c #5A4D3C",
"&. c #57503E",
"*. c #59523F",
"=. c #474340",
"-. c #474441",
";. c #484540",
":. c #494641",
">. c #4B4642",
",. c #4B4841",
"<. c #4C4940",
"1. c #4F4B41",
"2. c #4C4942",
"3. c #4F4B42",
"4. c #4D4A43",
"5. c #4C4944",
"6. c #4C4B46",
"7. c #4D4A45",
"8. c #4F4C45",
"9. c #4D4A42",
"0. c #514742",
"q. c #524B43",
"w. c #504C40",
"e. c #514D42",
"r. c #534D41",
"t. c #504D46",
"y. c #514E47",
"u. c #534D43",
"i. c #594E43",
"p. c #524F48",
"a. c #524D49",
"s. c #554E48",
"d. c #554F4A",
"f. c #544D49",
"g. c #545045",
"h. c #555145",
"j. c #5A5344",
"k. c #5F5846",
"l. c #545148",
"z. c #565249",
"x. c #54514A",
"c. c #57524C",
"v. c #56524B",
"b. c #5A564B",
"n. c #5B5549",
"m. c #5A564F",
"M. c #5B544B",
"N. c #5C584F",
"B. c #5D594C",
"V. c #5C5553",
"C. c #5B5851",
"Z. c #5D5A53",
"A. c #5D5B52",
"S. c #625645",
"D. c #61554B",
"F. c #635B4C",
"G. c #605750",
"H. c #625B55",
"J. c #605D56",
"K. c #635F56",
"L. c #635C52",
"P. c #695D53",
"I. c #655E5A",
"U. c #646153",
"Y. c #6B6455",
"T. c #67645D",
"R. c #67605A",
"E. c #68655E",
"W. c #69665F",
"Q. c #6C645C",
"!. c #6D6A5A",
"~. c #746D5C",
"^. c #6D6662",
"/. c #6F6B62",
"(. c #726D62",
"). c #746F69",
"_. c #7A7365",
"`. c #7F7866",
"'. c #79756C",
"]. c #7C786F",
"[. c #7E786A",
"{. c #797671",
"}. c #827B6B",
"|. c #898278",
" X c #8A867D",
".X c #91908E",
"XX c #AEA79F",
"oX c #F9F5EC",
"OX c #FFFFF4",
"+X c #FFFFFA",
/* pixels */
"% % 2 -   . ; 2 2 6 6 ; ; 6 i i u u p u k 6 O c v k m c u m _ _ n v v =.v n k k m f l 7 8 4 h i ; ; 2 y 6 % .     .       ; = ; ",
"u ; ; ; % ; 6 ; ; 2 u 6 u 6 u u u i u p p i k n c y _ k W 5.p W W W c v u v n W f k k h l h h k 6 ; - 6 y 6 : 2 : y   o   = : = ",
"p 2 ; 2 6 u u ; 6 2 u ; u 2 i f u f u k i i :.v 5._ m ) v k :.n v W _ ) k m v f n W h k l i 4 i u 6 : 6 6 6 : 6 6 y   X   = : ; ",
"2 ; ; ; - ; ; - 6 2 u ; 6 ; p k i k k v k f W n p +Xn W ( n m _ m W n _ v [ [ _ m l l k l i i f p i i p i 6 : : ; = 6 = - : = - ",
"; 2 2 2 6 6 6 6 2 2 u 6 i 6 i u f k n k n k p 8.y._ ) v y.k k _ _ z l <.~ _ n n W f _ n R s l 4 6 6 u i y 2 : 2 : : : y y : = X ",
"        - 2 ; ; 2 6 2 ; ; i f p f k k u v n i C.v.T.W.J.            @ n W _ n W _ l W k k f v 7 i i i y : ; ; : : k . y : ; :   ",
"      . 2 u 2 6 - ; . . . k n n k l k k n m n ,.<._ k n p.W.[ v.n. .~ r.R R W [ f  .v k v ' f f p i y 6 y y y y : k c = - : :   ",
"  .     .         O       m W W m ( W ,.( ) y.k k n W k <.m.Z.<.g.h.#.#.h h f h l ].c.m.p.s.          X ; y u 6 y i .X$ y y =   ",
"              . .     . . v 5.k W l [ [ <.W | |  Xv.7 i <.J.N. .i.$.$.n.s < W |.} q.s.s.R H.          . 6 y p : 6 i y : : : % o ",
"  . u p k 2 u 6           ) f :.l v._   k z 7  .<.~ W  .y.y.y.g.n.%.| n. .^ K  .q.s 7 f l q..         . y 6 6 O 6 6 :   o X     ",
"u 2 f 6 p 6 n v u k $   X ) W v W _ [ k /.. oX_ _ W _ <.<.[ [  .i.i.} r.} q.| | 4   . XX# c.[ m.  .     6 6 i p 6 2 y           ",
"f 6 u 6 i u f 6 i u X     W k _ W <._ [ _ R J.z m.[ n W [ [ _ R E $.q.} R | i.m.i.n.c. .m.R W g.  .     f 6 : 6 6 6 p     .     ",
"2 6 6 f 6 k k i k f u $ X   C.m.<.z <.z | } | u.[ W R R R R R R W W E | } | } q.M.P.} } | j.c.| c.m O   k k c m y y p     o     ",
"6 f 2 6 . 6 i k f k n       Z.n u.u.[ W W  .| } R z k s s s s s k s k k R j R E +.$.i.Y.} K ^ u.p.i     k k i 6 p k ;           ",
"6 i 6 6 $ 6 6 6 v p 5.    I.8.v.| r.R g.} | u.z R j 8 4 7 8 8 7 8 7 s 5 8 5 j W i.F.c.R ^ $.+.r.p.i . . i i c c k c . X         ",
"u 6 6 6 u W _ k v m c   c.  ).W y.W [ y.<.W j k 8 s s s r w w 8 s r g 5 g s j s h K $.$.n. .K n.:.n v v W y f p i k   X         ",
"  X i k n h n k n f W . >.. m._ y.( ( l.y.R s 7 7 w 8 s j s 7 r 0 B t 9 t t w w s s R y.r. .r.1.n n v 5.u v s i k u . 2 u p y p ",
"c f v f k s n v W c x   ' < J.r.,.( ( [ W k a w r r r r j d r t V C V q S S t e r r l ~ _ [ <.<.:.W l v         k k k l [ p p 6 ",
"f i f i l k n v f X     q.s } ~ | { [ W g w w t d t e t D D t t A A V V F F t t r r s s z |  .:.>.v c W     . . 2 i f 7 h ; u u ",
"f p k f W l l k u H.V.i ' q.P.} |  .} K r w t d S V q V F Z N N F F V N F L D t t s 7 5 k [ <.<.W g W d.u i v n % f u l i p u u ",
"c f f u R z R W q.c.W a f.} } ^ } } E j t t t V F V q N F A N N P A N q F L V t t d w 5 k | <.u.} z W y.k l W W p W i f u k p u ",
"f f f u [ | [ <.s V.V.2 >.q.c.$.^ R j t t t t t F Z 0 N P A N N G F N q A F V t t D r 5 j R W y.q.R z v i f n n _ n 7 % 6 2 k u ",
"p f p i s. .~ W c.d.f.2 ^.j.$.R | l r r d t t V L A q N G A N N G G N N A F V t S J d w j g l s.| _ z s k l W _ n v f 7 n u p 6 ",
"      . n ~ R W R M.V.. >.q.F.^ } l w s d s d H L D q V L G Z q G I Z V F F Z V F Y D e d s g s.W q.W s n n n W W ( i k u i 6 i ",
"      X h ~ | _ R d.f.R M.F.%.$.| v s f s s d j E D e t H L D t L F Z Z F G A q F Y H t s w g 0.0.W l j l R R n W n   . 6 k i i ",
"  O b Q y.| R z H.I.Q.  M.i.Y.l W k i i f s s g R l j j l j j r H D t V D F V 0 F Y H t d a j i.W W R R z 8 %   k _ k k v u p p ",
"    W m n R n [ V.V.M.@ $.i.F.j.[ b p f v v l l l v T z j s s s K D d S D F D V F L H d d d R m.n.r.^ R ~ | | ~ k k v k W 6 p y ",
"    -.( ~ 1.~ | m.R.I.u.P.P.H / ,.b p k n n v l f c n z h i i f z g g d D F D V F L D t d g R D.r.| R K W | | | _ f f k n f c p ",
"o   _ Q n | z z H.c.m.+ K i.S.^ ` k u p k k f s s s k f f i i i s s a s d d t t F L D t d d R m.j.i.#.$. . .~ R _ l k n k k y y ",
"    m m n ~ ~  .  @ s.# E i.F.j ~ k 7 8 s s 8 a a u a s s i i u i a a a a d t t F L D t t s z c.$.} R K R ~ | | _ n k W v v O   ",
"  O m _ ,.~ z R     M.$.$.%.%.O.~ h 8 r s r r s s s a s s f s i f f s s d d d t D L D t d s l j.$.+.X.X. .| ~ R <.[ n i f f     ",
"    .   .       .   G.n.F.j.j.^ R j 8 w r w r d d d d d d s s s s s f g d d d S D L D t d s l j.#./ ^ ~ ~ ~ ~ ~ n _ n . .     X ",
"  .             X   N.|  .h.$.R | j w w t t t t F Z 0 q F D e 9 D D t e D F B e D L D t t w l F.h.X.| R ~ ~ z ~ W n m l n f X   ",
"  .     o           l.n.B.B.M.i.| l w w t t t V I A q V G F V N F G V N F G V B S J D d d r K P.F.X.i.~ ~ z . . n l k i v W i u ",
"                  * ` B.n.#.} } | l s s d t t V Y F V V I F V V G G V V F I F B F L H d d s K H.n.K r.~ | |     h k l k _ :.k k ",
". X O             ,. .!.B.%.$.| | v s a g d t S Y F V V U F V V I G V N F P V V F L H d d s K H.Y.#.i.^ | R .   h k n n _ W u 6 ",
"p i i   o         U.| Y.j.i.i.} ' c a a d d d S Y F B V U F C V I I N N P I V t B D d r g s R H.| ^ z R | ~ R R l l l i k k u i ",
"n k n             A.z N.+.^ } T W x i a d d d S J F B V P F V N P A N N F P V 0 S H d s s s l v.$.n.K R R s R n W n n i i k u k ",
"k i c             A.~ !.F.+.+.W ' c a a g d d S J F M V P A M M P A M M F P V 0 S H d s s s k y.| } z K ~ z ~ | W W _ k f f 6 i ",
"h p n     o     . g.~ }.~.j.i.+.' c a s g d d D Y F V C I P C N I I C N I Y D e 3 d s s k k R N.N.$.^ K ~ ~ l W W W m p i f y k ",
"k n k   O       . g.B.~.U.j.D.| [ v s s d t t D Y A N C I A C C I F V V F F V t 9 w s j k s W J.n./ | R R ~ n ~ W W p p u k y p ",
"f l i o         ` r.^ }._.$.+.q.| l s r r t t Z I A N N I F N N I F V V F J S t e e d k k s W L.n.X.} ~ ~ ~ z R W W p f i k i p ",
"f n k f   o     v.n.! ~.~.j.i.+.} l s r t t t Z L F N N G G V N G G V V L L S V e e d d j s R n.g.^ } ^ ~ ~ l z n l i f u k u u ",
"7 8 i v     o . ` n.^ F.j.+.i.R | l r r t t t D L F t t G G t t J F V V J L D S e t e g j s K u.$.R ~ R R ~ l z l l k v i k f k ",
"z f k v   X W ) <.| K ~.F.K ^ E W k 8 w s d t d H H d d H H g d H D d V J J S S d d t d d s K u.#.R R K z R l z n n m W 7 i u p ",
"h 4 f i     5.5.y.R j }.~.o.$.^ ' l s s k k d j H K j g z z g s H D j d H H d d D H S d d d K n.n.} | R R R l z z l n k .       ",
"h f v k X   5.) _ ^ ^ }.~.S.P.| >.v f f v T l l j R v g v c k l K K j d H H d d H J D d t t E F.n.+. .~ R ~ l z l h k k         ",
"f f f f     :.:.| X.+.}.Y.$.S.} ' c i f l l k k l R T l c c x k z K j d H D t t J J D t w r E F.n.X.X.^ ~ ~ n W n l W _ 2 6 p p ",
"f k n i f i ) q.} $.^ _.Y.i.n.^ ' f u i u u i u u u u i i u u u i i 8 w w 9 e t F L S t t r D j.+.! ! ~ ~ W W n v W v k i 4 u 6 ",
"p i 2 v f k y.| r.h.} _.Y.$.j.R ' f u u 8 u a 8 s a u i i i u u i u 7 w w 9 e t F G Z t t r H n.j./ ^ ^ ~ _ f f v m i f 7 7 i i ",
"v v n u v v   g.$.i.X.[.Y.%.k.+.| f u a 8 w r w t r r r s s w 8 s s w r e t t 0 Z G D t t e K F.*./ / } ~ | . X   O   6 6 7 4 6 ",
"6 k f u u k   .   @ 8 _.~.j.&.K | s 8 r w w t t S t t t d d t w g d s e t V B N V G D t t r K P.j./ ^ ^ ~  .          f p k 8 i ",
"k k f n l k l ~ }  .^ _.U.X.j.+.| g w r w e t t F V V V D D V e D S d t S F A V Z G D t t r R P.F.$.^ R R <.  X       6 < 7 ; 6 ",
"f 6 i 4 f 4    .l R ~ }.~.&.j.^ | g w r e t t V F Z N V F F V q D D S B F L F N Z L D t d r K L.j./ ^ ~ R W       .   u u p 8 i ",
"7 k u l i W h h ^ ~ z ~.F.^ +.R | g w s t t V V G A N V A F V 0 F F V V F Y F 0 F L D t d s z n.$.~ ^ | R l @         6 7 6 6 6 ",
"k p p u < n k OX~ R z _.!.+.h.^ ' k a s s t S t L D N V F F V 0 F F V V A Y F 0 D J j r s s z c.n.^ R R W n v f f i 6 u i 4 8 6 ",
"y 6 6 p k k k l z z h _.m.K R R n k i u 8 r r w S t e t V V t 0 V V V 0 q V V t S D r 4 5 8 k [ W z z s l f v k i f f u 6 7 6 ; ",
"6 i u 6 6 f k k l n 7 (.L.W z f k p 6 2 2 5 5 5 t w 9 9 w t w 9 e t e 0 e t e 9 w r w 5 5 4 i n ~ z l 7 s i f i i p i u 6 6 6 ; ",
"6 u i u u p k l k _ < Z.u.s f i p y 2 ; 2 2 5 5 r w 5 5 w w 5 1 9 3 , > 3 9 9 1 9 9 < & - ; 7 v u f k < 6 7 v n p i u u 7 6 6 6 ",
"p 6 6 p 6 .   .   v i '.(.W R n n c p u u u s s j g d d g g s r H S t w t S d d j j s 8 u i k [ | ' ' s f k W n p u 6 u 7 < ; 6 ",
"p y y p y .       n k {.^.W W W v c f s i a s d j d g g g g g s H S d r d d g s s k s s f i f m ' R l 2 f v n s i 7 4 7 6 ; ; 6 ",
"    .             %   i 2 % = ; & % @ @ + @ # # # # # # # # # @ + # # # & & & % & & $ . . . % 4 - < 7 - 2 ; u i u 7 4 4 6 < : 2 ",
"  o o                 c f v f f a 8 w w 9 9 9 w w w w w r r r r s d d a w a s s s f i i f f n ,.7 s R f 6 $ < u 7 7 6 < ; 2 : : ",
"                    X f y c i f s r r w 9 9 3 9 9 9 w w r t r r s w < @ .   . .   @ 2 i k p u f v s f f n i i 7 6 u 6 ; ; 2 2 ; "
};
