/* XPM */
static char *_8a18dc4516842eaf6d668778feccb3fCzfSDsT5KdTjOVWt[] = {
/* columns rows colors chars-per-pixel */
"64 64 177 2 ",
"   c #0F3656",
".  c #0F3858",
"X  c #103756",
"o  c #123857",
"O  c #133B5B",
"+  c #183F5E",
"@  c #17405F",
"#  c #19405F",
"$  c #174161",
"%  c #1B4361",
"&  c #5993AF",
"*  c #5B96B1",
"=  c #5797B8",
"-  c #5997B8",
";  c #5C9CBC",
":  c #629AB2",
">  c #5FA1BE",
",  c #63A3BE",
"<  c #6CA7BF",
"1  c #5DA4CA",
"2  c #64A5C1",
"3  c #6CA6C1",
"4  c #66A8C2",
"5  c #6BAAC3",
"6  c #61A6CB",
"7  c #65AACD",
"8  c #6AADCE",
"9  c #73AEC4",
"0  c #7AAFC3",
"q  c #6BB0CF",
"w  c #75B0C5",
"e  c #7BB0C4",
"r  c #74B2C9",
"t  c #7DB6C9",
"y  c #7EBACD",
"u  c #67ADD0",
"i  c #6BAFD0",
"p  c #6DB3D1",
"a  c #72B5D2",
"s  c #78B7D5",
"d  c #75B9D4",
"f  c #7BBCD6",
"g  c #7BBED9",
"h  c #7DC1D9",
"j  c #83B4C4",
"k  c #89B6C5",
"l  c #87B8C7",
"z  c #82B7C9",
"x  c #82B9CB",
"c  c #8BBCCB",
"v  c #93BBC8",
"b  c #83BED2",
"n  c #8BBFD0",
"m  c #81BED9",
"M  c #86C0D2",
"N  c #8BC3D3",
"B  c #83C4DB",
"V  c #89C6DD",
"C  c #86C8DD",
"Z  c #8BCADE",
"A  c #92C7D6",
"S  c #95C8D6",
"D  c #9BC9D6",
"F  c #91CCDF",
"G  c #9CCCD9",
"H  c #A1CBD6",
"J  c #A1CFDB",
"K  c #A1D1DD",
"L  c #82C7E0",
"P  c #8DCCE1",
"I  c #92CEE1",
"U  c #8FD0E5",
"Y  c #94D2E4",
"T  c #9CD4E4",
"R  c #9FD8E7",
"E  c #96D5E9",
"W  c #99D6E8",
"Q  c #9DD9EA",
"!  c #A0D5E4",
"~  c #AAD5E0",
"^  c #A3D9E7",
"/  c #A8DAE7",
"(  c #A4DCEB",
")  c #AADEEB",
"_  c #B1DDE6",
"`  c #B1DEE9",
"'  c #A6E0EF",
"]  c #ABE1EE",
"[  c #B3E3EE",
"{  c #BCE5EE",
"}  c #ADE4F1",
"|  c #B2E6F3",
" . c #B9E7F1",
".. c #B6E8F4",
"X. c #BCEAF5",
"o. c #BFEDF8",
"O. c #C1E7EE",
"+. c #C5E8EF",
"@. c #C8E9EF",
"#. c #C2E7F0",
"$. c #C2EDF6",
"%. c #CBEDF4",
"&. c #C3EEF8",
"*. c #C8EFF8",
"=. c #D1EFF4",
"-. c #CEF0F7",
";. c #C6F0F9",
":. c #CBF1F9",
">. c #D3F1F7",
",. c #D8F3F7",
"<. c #D4F3F9",
"1. c #D8F4F9",
"2. c #D9F4F8",
"3. c #DBF5F8",
"4. c #D8F6FB",
"5. c #DCF5F9",
"6. c #DDF5F9",
"7. c #DEF5F9",
"8. c #DEF6F9",
"9. c #DDF5FA",
"0. c #DDF6FA",
"q. c #DFF6FA",
"w. c #DFF7FA",
"e. c #DAF5F9",
"r. c #DFF9FC",
"t. c #E0F2F5",
"y. c #E1F5F8",
"u. c #E1F6F9",
"i. c #E0F6FA",
"p. c #E0F7FA",
"a. c #E1F7FA",
"s. c #E3F7FA",
"d. c #E4F6F9",
"f. c #E5F7FA",
"g. c #E2F7FA",
"h. c #EAF7FA",
"j. c #E1F8FB",
"k. c #E2F8FB",
"l. c #E5F8FB",
"z. c #E6F9FB",
"x. c #E1F9FC",
"c. c #E3F8FC",
"v. c #E2F9FC",
"b. c #E4F9FC",
"n. c #E4F8FC",
"m. c #E7F9FC",
"M. c #E7FBFE",
"N. c #E5F9FC",
"B. c #E8F9FB",
"V. c #E9FAFB",
"C. c #E9FAFC",
"Z. c #ECFBFD",
"A. c #EEFBFD",
"S. c #EBFAFC",
"D. c #F5FBFD",
"F. c #F1FCFE",
"G. c #F2FCFE",
"H. c #F4FDFD",
"J. c #F7FCFD",
"K. c #F7FDFD",
"L. c #F6FDFE",
"P. c #F5FEFE",
"I. c #F7FEFE",
"U. c #F3FCFD",
"Y. c #F8FDFE",
"T. c #F8FEFE",
"R. c #F9FEFE",
"E. c #F9FFFF",
"W. c #FAFEFE",
"Q. c #FBFEFE",
"!. c #FBFFFF",
"~. c #FCFEFE",
"^. c #FCFFFE",
"/. c #FDFFFE",
"(. c #FEFFFF",
"). c white",
"_. c #FBFEFE",
/* pixels */
"  O $ $ $ $ $ % % % % % % % % % $ $ $ $ $ $ $ $ % $ % % $ $ $ $ $ $ $ $ $ # O O O O O @ @ $ # # # # # # # # # # + + O + # @ O   ",
"  : b N b b M G J J J J J J J M b b b b r 2 r n H D A N N N G ~ ~ K G K K G A D b 8 ; 4 r M y y b G G G G G G S N M b b N M , X ",
"  0 ( [ =.,.,.k.b.b.c.c.c.k.k.,.%.X.} ( P f T +.d.s.7.,.3.,.c.C.b.4.3.c.c.1.*.X.} W a P Q [ %.=.,.s.7.s.s.s.s.3.o.>.,.,.X.} x X ",
"  e [ +.W.~.~.W.W.W.W.W.W.W.H.W.V.1.o.) Z f _ t.~.W.~.~.~.~.W.W.H.c.C.W.H.b.<...X.] h ^ [ $.D.~.~.W.W.W.W.W.~.U.<.U.W.H.-.X.c O ",
"X 0 X.s.7.l.<...X.$.;.&.&.-.3.1.3.7.7.[ Z f $.d.H.7.7.7.7.:.&.:.3.1.3.3.7.-.| } X.] f [ >.7.H.Z.s.V.*... .X. .X.o.<.7.3.7.*.c O ",
"  j $.l.s.<.$.} X.o.&.&.:.<.3.7.-.$.*.] F f [ ,.C.s.s.7.-.;.&.:.3.<.3.3.%.X.} } ..] h { 3.Z.C.l.7.%...} } } ..X.-.3.7.7.-. .c O ",
"  j %.C.7.X.} | &.&.:.&.1.3.<.<.X.} } ) I h ) =.b.7.s.1.&.&.&.-.3.3.<.<.| } | } | ( B { 7.H.7.3.>.} } | | | o.-.7.3.<.,. .] c X ",
"X j =.U...} | | o.-.3.1.3.1.&.| } } | ( Y Z ) %.b.&.&.&.&.&.<.3.1.3.-.} } ..X.} | ( B ) %.l.l.-.} | } ..&.o.-.3.3.-.X.[ ..} c X ",
"X j =.H.| } ..o.&.-.3.3.-.&...} } } } ( Y Z ) =.l.&.&.&.&.<.1.3.1.3.<.X.X.$.o.} } ( B ^ $.C.*...} | } ..&.<.<.<.:.X...[ [ ] c X ",
"  j %.A.| } ..&.:.<.3.<.;.o.} } } | X.] Y Z ) *.3.&.&.&.-.3.3.3.3.<.:.&.&.&.X.} ..] B T X.C...} } } ..X.-.3.<.:.X.| ] [  ...c X ",
"  j $.s.| } ..&.1.3.<.&.&.o.} } } ..;. .T C ) X.-.&.&.:.3.<.<.<.1.&.&.&.&.X.} } o...B R X.b.X.} | | &.-.3.<.-.o.} } | | *.X.c o ",
"X j $.1.} X.&.&.3.<.&.;...} } } X.&.&. .T Z [ $.&.&.<.3.3.3.-.&.&.&.&.&.| | } } o. .B ) %.l.X.} | &.<.3.<.:.X.| } } ..$.*.X.v o ",
"X j $.3.X.&.o...:.:.&...} } } X.o.&.<. .T C )  .;.<.3.<.$.:.&.&.&.X.....} } } } ..] B ) *.<.....$.<.3.3.1.&...} } } ..*.3.%.v o ",
"o j $.7.&.$...} &.&.X.} } } | &.&.:.7.X.T B )  .:.<.<.*.} o.&.&.$.| } } } } } | | ( h / X.&...o.-.3.3.<.<.$...} [ [ X.-.s.%.v o ",
"o j $.3.$.| } } &.X.} } } ..&.&.<.3.3. .I f ` X.&.&.| } | &.&.$.| } } } } } | &.X.Q p I [ ;.&.-.3.1.3.<.o.| } [ $.O.%.6.7.%.v o ",
"o l *.3.| } } } | | } } X.&.&.<.3.<.*.| I f ` X.&.| } } } | | | } } } } } ..$.&...Q p I ] &.<.<.3.7.-.$.| } [ O.O.=.3.7.%.$.v o ",
"o c $.*.} } } } } } | X.o.;.-.3.<.:.&...I f ^ [ X.} } | | } } } } } } | ..$.&.X.] Y p I [ &.1.3.<.%.o...} ..X.@.%.3.7.>.+.{ v o ",
"  k | } } ] ] } } } ..&.&.:.3.<.*.o.$.| I f P ( | } } } | } } } } | | | $.&.X.} W B 6 I ] &.>.,.%.} } } | o.$.%.3.3.=.O.{ { v o ",
"  0 T T | ..| ..&.;.;.;.1.c.r.;.o.o.} Y f p Y ] ................;.:.;.;.:.X.} } ( P 7 F ) ............X.:.;.<.k.k.:.;.o.] ( l o ",
"X , g f B Z I P I I I I I I I Z Z V h a 8 6 a B P Z Z Z P P P I T T T T T Z h B g p 1 p B Y I I I P P Y Y Y T ! ! I V V f g 3 X ",
"X = p p a f B B B B h f f f a f f f a s s s a f B B f f B B f d p f B B B f f f s s f s m Z V B B B B B B B B h B f p a i p ; O ",
"X ; P ^ [ ....| X.X.X.| ..X.$.$.$.o. . . . . .X.X.X.X.X. . .T B 8 V ^ { { X.&.;.:.-.3.7.1.1.o.X.o.X.o.X.X.X.X.X.X.} } | / W r O ",
"X 5 (  .s.A.h.V.Z.7.<.V.l.V.Z.b.k.k.s.s.s.s.s.1.-.>.>.>.-.$.) Z p B ` A.V.s.3.C.Z.Z.U.U.U.U.<.3.C.b.b.b.l.l.l.7.&.o.o.o...' t O ",
"X 0 [ ,.W.W.H.H.W.b.1.C.C.V.V.b.c.c.c.c.b.C.C.7.3.3.1.<.-.o.) I p B [ ~.H.C.s.H.Z.C.C.V.C.C.<.3.C.C.C.C.A.Z.Z.b.:.;.&.o.o.} x @ ",
"X 9 $.~.W.b.3.3.7.-.X.} } } } o.&.&.&.o.:.3.3.3.1.3.:.o.| | ( I p V [ W.7.3.7.7.X.} } } } | } X.&.&.&.*.3.<.<.<.:.&.X.} &.| y O ",
"X 9 *.~.s.s.1.&.:.o.| } } ..$.&.&.&.1.<.1.3.-.;.&.:.X.| | } ( I p F { C.7.7.3.X.| | | | | | X.$.&.<.<.<.3.3.-.&.&...| } :...y O ",
"X w $.U.s.1.-.&.X...} } ..o.&.&.:.<.3.3.<.-.&.&.&.X.| } | | ( I f I { 7.7.<.$.} } } | } ..X.o.:.-.3.3.3.3.%.X.X.X.} } } X.} x O ",
"X w $.V.3.*.o.o.| } | | o.&.&.&.<.3.1.3.<.&.&.&.o.} } } | X.) Y h T [ 1.<.*.} } } | | | X.:.&.-.3.3.<.<.>.| } } } } } } | } x X ",
"X 9 $.H.X.| } } } } | $.&.&.3.3.1.3.3.3.<.&.;.X.} } } } } &.[ I f Y [ ;...} } } } ..&.&.:.3.1.1.1.3.:.X.} } } } } } } } &.| t X ",
"X 9 %.W...} } } } ..o.&.-.1.3.3.3.3.3.-.&.&.X.} } } } | o.;.[ Y g T [ -...} } } } | &.<.<.3.1.3.<.;.&.&.X.} } | o.X.X.X.&.] 9 X ",
"X j %.l.| } | ....$.-.:.1.3.3.<.<.-.-.&.o.X.} } } } | X.&.<.[ Z f I [ &.| } } ....X.-.1.3.3.<.<.-.&.&.$.X.} | X.X.$.;.&.1.] 4 X ",
"X j X.:.| } ..;.&.<.3.3.3.3.3.&.&.&.o.&.X.} } } } | X.&.*.7.[ B p F ] | } } | &.&.:.3.<.>.>.&.&.&.&.&.X.} } X.$.| X.&.&.C.[ 4 o ",
"X j X.*.| } ..&.<.1.3.3.3.1.&.&.&.$.| | } } } } | $.&.:.<.k.[ B p F ( } } ..&.<.1.<.3...} | &.&.&.&...} } } } | $.&.:.3.C.[ 4 o ",
"X e | X.X.X.$.<.1.3.<.-.-.:.&.X.....} } } } } ..X.&.-.<.3.*.( B a F ( } ..$.<.1.3.,.X.} } } X.X.X.X.| } } } ..X.&.-.<.3.1.] 4 X ",
"X 0 ' ..*.:.-.3.-.-.-.&.&.&.X.} } } } } } } | X.;.*.1.3.%.} W B p Z ^ } $.-.3.<.>.*.} } } } } } } } } } } | X.&.&.1.3.<.;.( 4 o ",
"X 0 )  .,.3.3.<.| } ..&.&.X.} } } } } } } | $.&.&.,.7.-.} } W B 6 B ( ..>.3.1.*...} } } } } } } | } } } } $.$.*.3.3.<.$.:.( 4 o ",
"X 0 } ..$.$.o.X.| | ..X.X.X.| | | | | X.&.&.&.-.3.7.-...} } Q B 7 B W | ;.-.:...| | | | | | ..| | | | X.&.&.-.3.s.-.&.&.o.Q 4 o ",
"X 0 ^ ^ ( ( ( ( ( ( ( ( ( ( ] ] ] ] ] | ...... .$.$.[ ( ^ ( Y g 7 f P Q ) ] ) Q ^ ^ ^ ^ ^ ( ( ( ] ] ] [ .... .$.O.] ] ] ( E 5 o ",
"X 3 P C C C Z Z Z C Z Z Z Z T T T T T T T T T Y Y T Y I F Y f 6 7 a g B B B B C C C B C C C B F ! T ! T T T T Y Z Z Z Z Z P 9 o ",
"X - p 7 7 p a a p p p p p p p a a p 8 8 8 i 8 a d d p 8 7 6 1 1 1 6 7 a p p a a 8 8 8 8 p d a a d a d d d d d d d a 8 8 8 p ; X ",
"X ; g f B Z P Y T I I I I I I P C B m m a 6 p B F Z B V I P I I I V V I I I I I B a 6 p f Z P P I T ! T I I I I Z Z B B V h , X ",
"X < E ]  .X.X.:.<.:.&.&.:.-.-...} } ] ) V u C ) $.X.X.X.<.<.<.:.:.$.$.*.*.$.o.o.] P 7 B T ..$.$.:.c.b.4.;.;.;.*.X. .| } } Q 5 X ",
"X j ..X.A.W.W.W.W.Z.s.U.U.U.U.1.1.<.| ..T f Q =.~.H.W.W.~.~.~.W.w.F.W.W.7.3.<.| | ( f P { ~.W.W.W.~.~.U.1.C.Z.C.Z.3.*.....] t X ",
"X j $.<.W.F.C.C.C.l.7.1.1.1.1.&.$.X.| o.^ g [ 7.~.W.U.7.<.<.<.<.-.1.s.V.s.>.X.} X.} f Y #.~.Z.Z.C.<.<.-.$.<.3.s.k.*...| $.| t X ",
"X j %.Z.F.s.3.3.3.3.<.&.&.&.X...} } } :.) h X.d.W.C.3.o.} } } | *.*.:.3.3.$.} } o.| f T %.W.s.7.%.} | | ..$.-.1.3...} } :. .t X ",
"X j >.~.3.3.3.3.7.-.&.&.&.X.} } } | | $./ h  .s.U.;.X.} | | X.:.3.3.3.3.;.X.} } o.| a ) =.b.l.-.} | $.&.&.1.3.1.3. .} } :. .t X ",
"X k %.C.3.7.1.&.*.&.&.&...} } X.o.X.| } Y B ] ,.Z...| } } X.-.<.<.3.<.&.| } } } | ( h / %.Z.X.| } | o.:.<.<.3.1.&.| } } ..] z o ",
"X k >.U.s.1.:.&.&.&.&.X.} } } o.&.$.| } E B ( %.s.| } | X.&.-.3.3.-.X...} } } X...( B ! $.A...} | X.*.<.,.3.<.*...| } } } ] z o ",
"X j >.H.s.:.&.&.o.$.X.} } } | $.$.X.| } E B ] *.-.} | X.;.&.<.<.>...} } } } | &.X.( B T { s...} X.&.<.,.<.<.:.X.} } } } | ] t o ",
"X j $.3.&.&.&.&.} } } } } | $.&...| $...T C [ $.&.} X.:.3.<.3.>.} } } } } ..&.&.$.] B T [ ;.} ..&.<.<.<.<.&.&.X.} } } } $.| t o ",
"X j *.7.&.&.X.| } } } } X.$.&.| } } &.X.Q C [ $.&.X.-.3.3.3.<.$.o.| } } } X.&.&.&.] h ^  .&.X.*.<.<.,.,.,.:.X.} } } | X.$.} z X ",
"X j X.<.X.X...} } | ....$.$.X.} | X.-. .Q C ] X.&.:.<.<.-.-.:.&.&...} } ..X.&.-.&.] h ) X.&.:.<.3.,.<.-.-.X.| } } | X.&.-...t X ",
"X e | $.| } } | } X.&.&.&.X.} | X.:.3.X.T B ^ ..:.3.:.o.&.&.$.$.$.| } | $.&.&.7.%.] f / X.;.<.3.<.<.&.&.o.} } } | o.&.&.7.X.t X ",
"X e | *.} } } } o.$.$.&...} | o.-.1.3. .T B ) *.3.&.&.&.&.&.X.} } } } } o.-.<.3. .E f Y [ 3.3.-.&.&.&.X.} } } | $.o.:.3.k.X.t X ",
"X e | $.} ..X.X.&.&.$...| | X.-.<.3.3. .T B ) $.-.&.&.$.....| } } } | X.:.<.3.7...Y f I [ 7.-.&.&.&.X.| } } ..X.&.-.1.3.<.} 9 X ",
"X 0 ] o.} X.&.&.o.o.X.} | X.:.1.3.3.1...E B )  .&.&.$.X.} } } } } } ..&.1.3.<.3...Y f F [ 1.&.o.$.$.| } } | X.&.&.1.3.<.;.( 5 X ",
"X , Q | } ..&.$.| } } } X.:.3.1.3.<.&.' P B )  .&.&...} } } } } } X.&.&.<.3.<.&.} T d Z ) &.&.X.} | | } } $.&.&.3.3.<.o.X.Q 5 X ",
"X , Q | } | ..| } } | X.-.<.1.3.<.&.&.] P f ] X.&...| } } } } | o.&.&.<.3.<.&.&...W a Z ( X...| } } } ..o.o.-.1.3.-.&.&...Q 5 X ",
"X , Q | } | } } } | X.&.<.3.1.<.$.X.X.] P a /  .&.} } } } } | X.&.&.-.3.<.:.o.o.] I q F ) ..} } } } } X.-.*.<.1.<.&.o.X.} E 4 X ",
"X , Q | } } } } } ..&.,.,.,.,.o.} } } ( Z p Y | $.} } } | } X.&.o.>.,.>.o.o.o.} Q B 6 F ) } } } } } } X.3.,.<.-.o...| } Q U 2 X ",
"X - P ( ....| | | ....X.X.....| | } ( Y g p Z ( X.| | | | | | | | ......| | ..' ( I 6 B ^ ..| | | | | | ........| ..} Q ( W w X ",
"X , L Z Y Y Y Y E E E E E E Y Y Y Y P C g p h P Y I I I E W W W Q Q W Y P P I P P B u f P Q W W W ( ( ( ( ( Q E Y Y P P P U r X ",
"  & 5 , > > > , , , , , , , , , , , 2 2 2 ; , ; ; ; ; ; 4 4 5 5 5 9 4 > > > > , 2 2 ; ; , 5 4 4 5 t t t t t 9 2 2 , , , , 5 * X ",
". X X O O O O X X O O O O O O O O X X O O O O O O O O O O O O O O O O O O O O O O O O O O O O O O O O O O O O X X X X X O X X   "
};
