/* XPM */
static char *_8a1555dade64f0ec60a2f8f601ff0fbUvxfjeaziECbwu71[] = {
/* columns rows colors chars-per-pixel */
"64 64 200 2 ",
"   c #0F3757",
".  c #103757",
"X  c #143C5C",
"o  c #16405F",
"O  c #18405E",
"+  c #174161",
"@  c #1A4363",
"#  c #1E4967",
"$  c #1E4968",
"%  c #204967",
"&  c #234C6A",
"*  c #4F737F",
"=  c #4B7688",
"-  c #617E86",
";  c #4E849F",
":  c #5A8698",
">  c #6A8288",
",  c #6E8B91",
"<  c #768E94",
"1  c #7F9195",
"2  c #73949C",
"3  c #789299",
"4  c #578BA3",
"5  c #548EA9",
"6  c #5E95AB",
"7  c #5796B7",
"8  c #5995B3",
"9  c #5C9AB7",
"0  c #5D9CBA",
"q  c #6696A6",
"w  c #6499AC",
"e  c #6E9CAA",
"r  c #799DA5",
"t  c #729DAA",
"y  c #629CB3",
"u  c #6D9AB0",
"i  c #619EBC",
"p  c #77A2AE",
"a  c #7BA0AA",
"s  c #66A1B7",
"d  c #6CA2B5",
"f  c #64A2BD",
"g  c #69A5BE",
"h  c #6DA8BF",
"j  c #71A3B4",
"k  c #78A5B3",
"l  c #7FAAB5",
"z  c #73A9BD",
"x  c #79ACBE",
"c  c #64A4C1",
"v  c #69A7C0",
"b  c #6CA9C2",
"n  c #65AACD",
"m  c #69ADCE",
"M  c #73ADC2",
"N  c #79ADC1",
"B  c #70AEC8",
"V  c #6BB0CF",
"C  c #76B0C7",
"Z  c #7CB2C5",
"A  c #75B4CA",
"S  c #7CB5CA",
"D  c #7EB8CC",
"F  c #6AAFD0",
"G  c #6EB2D1",
"H  c #72B6D3",
"J  c #7AB7D5",
"K  c #75B9D4",
"L  c #7ABCD6",
"P  c #7DBED8",
"I  c #7EC0D9",
"U  c #83969A",
"Y  c #889FA2",
"T  c #8DA1A5",
"R  c #85A3AA",
"E  c #84ABB4",
"W  c #8CAAB1",
"Q  c #83AFBE",
"!  c #91AFB5",
"~  c #84B1BF",
"^  c #8AB3BD",
"/  c #90B0B7",
"(  c #95B7BF",
")  c #A2B8BC",
"_  c #83B2C3",
"`  c #8BB6C3",
"'  c #8DB9C4",
"]  c #85BACC",
"[  c #8BBCCA",
"{  c #92B9C4",
"}  c #94BCC7",
"|  c #9ABCC3",
" . c #83BFD4",
".. c #88BED0",
"X. c #81BED8",
"o. c #AFBEC1",
"O. c #8CC0CE",
"+. c #95C2CD",
"@. c #9CC2CB",
"#. c #86C1D6",
"$. c #8CC1D2",
"%. c #84C4DB",
"&. c #89C6DC",
"*. c #86C8DD",
"=. c #8BCADE",
"-. c #93C4D2",
";. c #99C6D2",
":. c #96CAD7",
">. c #9DCAD6",
",. c #92CBDE",
"<. c #9ECDDA",
"1. c #ACC3C6",
"2. c #ABC9CF",
"3. c #B1C1C3",
"4. c #A6CCD4",
"5. c #ABCCD4",
"6. c #A6CFDA",
"7. c #A8CFD8",
"8. c #B6CDD1",
"9. c #A3D1DD",
"0. c #ABD3DC",
"q. c #B9D1D5",
"w. c #B3D5DC",
"e. c #BCD6DB",
"r. c #BDD9DE",
"t. c #86C8E0",
"y. c #8DCCE1",
"u. c #93CEE2",
"i. c #98CFE2",
"p. c #95D1E4",
"a. c #9BD4E5",
"s. c #9FD8E7",
"d. c #9BD7E8",
"f. c #9ED9EA",
"g. c #A3D5E2",
"h. c #AAD7E2",
"j. c #A4D9E6",
"k. c #ABDAE5",
"l. c #A4DCEB",
"z. c #AADEEB",
"x. c #B3DBE4",
"c. c #BBDCE3",
"v. c #B2DEEA",
"b. c #B8DFE8",
"n. c #A7E0EF",
"m. c #ACE1EE",
"M. c #B3E2ED",
"N. c #BBE4ED",
"B. c #AEE4F1",
"V. c #B2E6F3",
"C. c #BBE7F1",
"Z. c #B6E8F4",
"A. c #BCEAF5",
"S. c #BEEDF8",
"D. c #C5C7C7",
"F. c #C0CFD2",
"G. c #C2D2D4",
"H. c #C9D5D7",
"J. c #C2DDE2",
"K. c #D3DFE1",
"L. c #C6E1E6",
"P. c #CDE2E5",
"I. c #C3E6EE",
"U. c #CAE6EA",
"Y. c #C4E9EF",
"T. c #CBE9EF",
"R. c #DBE3E4",
"E. c #D5E6E8",
"W. c #D4E9ED",
"Q. c #C3E7F0",
"!. c #C2ECF6",
"~. c #CBEDF4",
"^. c #C4EEF8",
"/. c #C8EFF8",
"(. c #D2EEF3",
"). c #CDF0F7",
"_. c #C5F0F9",
"`. c #CBF1F9",
"'. c #D3F1F6",
"]. c #DAF2F6",
"[. c #DEF2F6",
"{. c #D4F3F8",
"}. c #D6F4F9",
"|. c #D9F4F9",
" X c #DAF5F9",
".X c #DEF5F9",
"XX c #E2EAEB",
"oX c #EBEEED",
"OX c #E3F2F5",
"+X c #EFF3F3",
"@X c #E2F7FA",
"#X c #E8F7FA",
"$X c #E4F8FB",
"%X c #E5F8FB",
"&X c #EAFAFC",
"*X c #ECFAFC",
"=X c #F2FCFD",
"-X c #F3FCFD",
";X c #F6FDFE",
":X c #F9FEFF",
/* pixels */
". @ % % & & & & & & & & & & & & & & % % $ $ $ % & & & & & & & & & & & & & % % % # @ @ @ # % % # % % % % % % % % % % % % % # @ . ",
"X 6 S ] ] ] ] >.>.>.>.>.>.>.>...] ] ] S b i M [ ;.;.-.$.$.$.>.6.6.<.>.<.<.:.-.-.D b 0 c M ] D D ] ;.;.;.;.;.;.-.] ] ] ] ] ] y + ",
"X z s.v.~.(.(..X@X@X@X.X.X.X.X(.~.C.m.s.=.L a.I.[.[.].'.'.'..X@X@X{.{..X.X'.!.V.z.p.L =.s.M.~.~.(.[.[.[.[.[.[.'.Q.~.(.~.C.l.Z @ ",
"O x k.Q.-X:X;X-X-X-X-X-X-X-X;X;X%X}.!.z.u.%.v.[.:X;X;X:X;X;X-X-X-X%X%X-X-X@X).A.Z.l.%.j.M.~.-X:X:X;X;X-X-X-X-X&X}.&X-X*X).V.] @ ",
"O x N..X@X%X{.A.A.^.`.`.`.{. X X X X{.M.u.%.N.@X-X@X@X@X.X).`.). X X X.X.X).Z.V.Z.m.%.M.~..X-X*X%X%X/.A.A.A.A.!.^.}..X.X XA.] @ ",
"O Q I.@X@X{.!.V.A.S.^.^.).{. X X).!.!.k.u.%.M.].&X@X@X.X).^.^.`.}. X X X/.A.B.B.V.l.%.N. X*X&X%X.X/.V.B.V.V.Z.!.). X.X X~.M.] @ ",
"O ~ Y.%X X!.V.V.!.^.`.`.{. X{.'.A.B.B.l.u.%.k.(.%X.X.X{.^.^.^.). X X{.).Z.B.B.B.V.l.*.M.].-X%X.X).V.B.V.V.V.S.). X X{.'.A.m.] @ ",
"O Q T.*XA.V.V.V.!.).}.}. X{.^.V.B.B.B.l.p.=.z.~.@X`.^.^.^.^.).}. X X).V.V.Z.A.V.B.l.*.k.~.%X@X).V.B.B.Z.^.!.).{. X).!.V.V.m.] @ ",
"O Q T.*XA.B.Z.S.^.). X X{.^.Z.B.B.B.B.l.p.=.z.~.@X_.^.^.^.{.{. X X X{.A.A.S.S.V.B.l.*.j.Q.%X/.A.B.B.B.Z.^.{.{.{.`.A.V.M.M.z.] @ ",
"O ~ T.%XV.B.Z.^.`.{.}.{.`.S.B.B.B.V.Z.m.a.=.z.^. X^.^.^.).}. X X X{.`.^.^.!.A.B.Z.m.*.s.Q.%XA.B.B.V.Z.S.).{.{.`.A.V.m.M.C.M.` @ ",
"O _ I..XV.V.Z.^.{. X{.^.^.A.B.B.V.Z.^.V.s.=.k.!.`.^.^.).(.'.}.{.{./.^.^.^.Z.B.B.A.V.=.j.Q.@XA.B.V.V.!.). X{.).A.V.B.V.V.^.N.` @ ",
"+ _ N.{.V.A.!.^.{.{.^.^.Z.V.B.B.A.^.^.V.s.=.M.A.^.^.{. X1.e.{.^.^.^.!.!.Z.V.B.B.A.V.=.z.Q..XA.V.Z.^.{.}.{.`.A.V.B.B.V.!.^.N.` @ ",
"+ _ N.}.S.!.S.Z./.`.^.A.V.B.B.A.S._.{.C.s.=.z.C.`.{.{.{.Q./.`._.^.v., k.V.B.B.B.V.z.=.z.Q.).Z.Z.!.{.}.}.{.^.Z.B.B.B.V./.}.Y.` @ ",
"+ _ N. X^.S.Z.V.!.!.A.B.B.V.V.S.^.). XC.a.*.l.C.w.U.{.^.V.^.x.4.S.M.+.z.B.9.^ 9.V.l.%.l.C.^.Z.S.). X X{.{.!.V.B.V.V.A.)..XT.{ @ ",
"+ _ C.}.!.V.B.B.S.A.B.B.B.Z.^.^.{. X{.V.p.P k.A.W R >.V.V.S.( @.V.B.V.B.m.- ^ C.Z.s.L p.M.^.^.). X X X{.!.V.B.M.Y.Q.~.]..XY.{ @ ",
"+ _ Q.{.V.B.B.B.V.V.B.B.A.!.^.{.}.{.^.V.u.P k.A.0.a <.` m.V.Z.Z.V.V.B.B.B.k.A.^.z.e H u.m.^.{.{. X X).!.V.B.M.I.Y.(.].].~.N.{ @ ",
"+ ` C.^.V.B.B.B.B.B.V.A.A.^.). X{.`.!.V.u.P j.M.Z.B.z.^ m.B.B.B.g.<.V.V.Z.!.^.A.l.&.H _ ^ _.{. X{./.A.Z.V.Z.A.Y.~.]. X'.Q.N.{ @ ",
"+ _ m.B.B.B.B.B.V.V.Z.^.^.). X{./.^.S.B.p.w e n.V.B.B.V.V.B.g.V.^ ^ Z.V.^.^.S.B.d.t.4 t >.0.J.{./.V.B.V.V.S.^.~. X X'.Y.N.M.` @ ",
"+ z p.a.B.B.B.V.A.!.!.^.).{.}.!.A.M.' Z B 9 z ~ g.V.V.V.9.' ;.V.N.C.^.A./ 9.:.n.s.=.c  .l.g.<.Z.V.V.V.Z.!.^.). X X_.S.A.z.g.Z + ",
"+ y L P %.y.u.u.u.u.u.u.u.i.u.y.y.#.4 4 8 F L M &.y.y.y.j * p.u.u.a.d.a._ S = j q b n g  .] q p.u.u.u.p.a.a.a.g.g.u.y.y.%.P g + ",
"+ 7 G H J %.%.%.&.%.%.%.%.%.P %.X.X.P L L L L %.=.%.%.%.%. .I L y C d #.=.%.C C A J X.u : $.=.=.=.&.=.=.=.=.&.*.*.P L L H H 0 + ",
"+ 0 *.s.M.M.M.M.C.C.V.V.V.A.| @.!.A.6.> v.C.C.C.C.V.V.V.V.V.a.%.V #.a x.N.C.!.^.b.I.{.{.L.~.A.C.A.A.A.A.A.A.C.V.V.B.B.m.l.p.b @ ",
"+ h s.C.@X#X#X#X&X.X{.@X@X%XK.G.@X@XE.G..X.X.X{.'.).'.'.).S.l.=.H &.v.$X#X@X X&XE.XX-X-X*X*X{. X%X%X%X%X%X%X@X.X^.S.S.A.V.l.Z # ",
"@ M k.'.;X;X-X-X-X%X}.@X%X%X%X%X[.W.[.o.[.&X&X.X X X{.{.`.A.z.u.H &.M.;X-X&X%X*X&X%X%X%X%X%X{. X%XOX%X&X*X&X*X%X).^.!.A.A.m.S $ ",
"@ M I.:X;X%X.X.X.X{.S.V.V.V.Z.^.4.< b.< Q. X X}.}.}.).S.V.V.l.u.H =.N.-X@X.X.X.X0.g.Z.V.V.V.Z.S.x.R ^.). X X X{.`.^.A.B.!.m.S # ",
"@ M I.:X%X.X{.`.`.S.V.B.V.Z.S.^.!.N.T.1.(.U.).`.`.`.A.V.V.B.l.u.H ,.N.%X.X.X{.A.m.;.k.V.V.V.A.!.!.U.{.{. X X).^.^.Z.V.B.^.M.Z # ",
"@ M I.*X@X}.).^.A.Z.B.B.Z.A.3 7.`.{. X X) Y ^.^.^.A.V.B.V.V.l.u.L ,.N. X.X{.!.V.V.g.z.V.V.A.^.`.Y.q. X X{./.A.A.A.V.B.B.A.m.Z @ ",
"@ M N.%X X/.S.A.V.B.V.V.A.^.! x.{. X X'.1 0._.^.A.B.B.B.V.Z.z.p.I a.M.{.{.^.B.B.B.V.Z.Z.A.N.4.w.J.8.{.{.~.V.B.B.B.B.B.B.V.l.Z @ ",
"@ M Q.*X!.V.B.B.B.B.V.!.^.`. X X XU.'. X'.^.^.A.B.B.B.B.V.!.M.p.I p.M.^.Z.V.B.B.B.V.^.N.Q.q.U L.'. X`.S.V.B.B.B.B.B.B.V.!.m.Z + ",
"+ M Q.*XA.B.B.B.B.Z.S.^./.'. X X Xq.(.)._.^.A.V.B.B.B.V.S.^.M.p.I a.M.`.V.B.B.B.B.V.^.w.U. X'. X{.^.| N.A.V.B.V.A.A.A.S.^.l.M + ",
"+ Z Q.@XV.B.V.Z.Z.!.).).Y e. X{.{.{.r.0.^.A.V.B.B.B.V.A.^.).M.y.L u.M.!.V.B.B.Z.Z.A.).}. X X{.{.).!.x.A.A.B.V.A.A.!.^.^.{.z.v + ",
"+ Z V./.V.B.Z.^.^.{. X X8.T.}.^.^._.A.A.A.B.B.B.B.V.A.^./. XM.*.K u.z.V.B.B.V.^.^.`.{.'.'.{.^.^._._.4.4.B.B.A.A.V.S.^.`.@Xv.g + ",
"+ _ V.^.V.B.Z.^.{.}. X(. X}.^.^.b.@.Z.V.V.B.B.B.V.!.^.`.{. XM.*.K ,.l.B.B.Z.^.{.{.{.{.A.z.2 b.w.@._.h.g.B.B.V.V.!.^.). X@Xv.g + ",
"+ N z.A.A.A.!.{.{. X(.2./.`.^.A.k.>.B.B.z.z.B.V.A.^.).{.{.!.l.*.L ,.l.B.Z.!.{.}. X'.!.V.l.^ M.0.@.A.V.B.B.B.Z.A.^.).{. X{.z.v + ",
"+ N l.Z.^.`.).{.).).`.!.^.^.A.>.m.V.B.B.;.g.V.A.^.`.{.{./.V.d.%.H =.l.V.!.).}.{.).!.B.B.r >.B.B.B.B.B.B.B.V.A.^./.{. X{.^.l.v + ",
"+ N l.C.'.}.}.'.V.V.Z.^.^.A.m.^ +.g.B.B.B.V.!.^.^.}. X).B.B.a.%.m *.l.Z.). X{.^.Z.B.B.B.2 ;.V.V.E } V.B.V.S.^./.}. X{.^.^.l.g O ",
"+ N l.V.!.!.A.A.V.V.V.A.A.Z.V.Z.+.9.V.A.A.S.^.`.{. X`.A.B.B.d.%.m I a.B.!.`.^.Z.V.B.B.B.g.m.} +.j.z.m.R v.^.`.{. X).^.^.A.d.g O ",
"+ z a.l.l.l.l.l.l.l.l.l.l.l.m.z.l.m.m.V.V.V.V.C.Q.Q.M.l.l.l.y.L m L =.d.z.m.z.l.l.l.l.l.l.l.-.:.m.m.m.;.v.V.C.Q.N.M.m.m.l.p.g O ",
"+ g *.*.*.*.*.=.*.*.*.=.=.=.a.O.p s.a.[ k a.a.p.a.a.u.y.=.=.L n n H L %.%.*.*.*.*.*.%.%.*.%.%.u.s.[ l s.a.a.a.p.=.=.=.=.=.=.b + ",
"+ 8 G G F H L L L K K H H K b y H K y i i v G K L L H G G F n n n n m K K K K K G F m = g s 6 L L y : L L L P L K K H G G G 7 o ",
"+ 9 L %.&.=.u.p.a.p.u.u.u.p.$.x =.*. .X.b ; H %.,.=.=.&.u.u.u.u.u.=.=.u.u.u.u.u.*.K n c d &.=.=.u.g.g.a.p.p.p.u.u.=.&.*.*.P y + ",
"+ g p.l.N.C.A./.)./.!.!.^.`.^.@.m.B.z.j.&.G *.z.Q.A.A.Q.).).).).`.!.!.^.!.A.A.0.:.y.F %.a.M.!.R < H.@X}.^.!.^.!.C.V.V.m.m.a.h + ",
"@ _ m.Q.&X-X-X;X;X&X%X&X*X*X&X(.~.`.V.V.a.A :.5.XX;X:XR.H.:X;X-X@X*X;X-X@X X{.r ' l.L y.N.;X;XXXD.R.:X&X}.@X&X&X%X}.^.A.Z.l.Z + ",
"@ _ C.}.;X*X&X&X&X%X.X}.}.}.}.7.| S.V.M.l.A 9.e.oX+XR.W.c.{.{.{./.'.@X&XP.e.x.B.Z.z.P p.Q.oXR.*X&X{.{.).^.{. X@X@X/.A.Z.S.m.Z + ",
"@ _ Q.&X*X%X X X X X{.^.^.^.A.V.m.V.j.! j.*.A.%X:XF.U !.Z.V.Z.A.7.c.{.'.T > l V.S.B.I s.Q.H.3..X/.V.Z.Z.A.^.{. X}.C.B.V.^.M.Z + ",
"@ _ ~.;X.X X X X X).^.^.^.A.B.B.V.9.r ^ l.d 4.W.OX`.V.V.g.^ A.w.U. X X{.^.9.^ g.h.z.I k.2.W.@X~.V.V.S.^.^.{. X}.{.C.B.V.^.M.Z + ",
"@ _ T.%X.X.X{.`.`.^.^.^.Z.B.B.A.S.v.E l.t w g.J.E.A.V.V.g.| `.U.(. X{.^.V.z.m.;.a -.*.k.~.%X!.V.B.V.S.`.{.{. X{.^.V.B.B.V.z.Z + ",
"@ _ ~.*X%X}.).^.^.^.!.A.V.B.B.A.!.S.V.B.=.%.m.~. XV.` <.S._.). X X~.!.A.m.[ m.A.V.l.*.g.Y.%XC.B.V.A./.{.{.{.{.^.A.V.B.B.B.l.Z + ",
"@ _ ~.*X.X`.^.^.S.S.A.B.B.B.V.!.!.A.V.B.a.=.m.^.e.` ;.h._.^.~.{.).A.j.+.B.B.V.!.A.l.*.-.!  XV.V.A.^.{.{.{.{.`.A.B.B.B.B.V.l.Z + ",
"@ _ I. X`.^.^.S.V.B.B.B.B.V.!.!.Z.V.S.V.s.=.+.N.A.m.A.`. Xr.1 ~.V.B.<.E B.Z.^.^.S.m.*.a.k.^.V.A.^.{.{.{.{./.^.A.B.B.B.V.A.m.Z + ",
"@ _ N. X^.^.A.V.B.B.B.B.A.S.!.V.B.V.!.V.s.=.0.A.^.S.5.U. X(.e.^.A.V.B.B.g.k.C.^.S.m.%.j.C.^.S.^.{.{.{.{.{.^.A.V.B.B.V.A.!.m.Z + ",
"@ _ N.{.A.A.V.B.B.V.Z.Z.S.!.A.V.V.A.`.C.s.=.m.A.^.`.~.~.).).N.A.^.V.B.V.E ( 0.).!.m.%.z.A.^.`.{. X{.{.).).A.V.B.B.V.A.^.`.M.Z + ",
"+ N m.!.V.B.B.B.V.A.!.^.!.A.B.V.A.`.{.C.s.=.l.C.`.{.`.^.^.^.7.N.!.V.B.V.A.!.`. X^.l.%.j.C.`.{.{.{.{.^.!.S.V.B.B.V.S.^.`. XN.Z + ",
"+ N m.!.V.B.B.V.A.!.^.^.Z.V.V.S.).}.}.C.s.=.z.^.{.^.^.^.^.^.A.V.V.B.B.V.S.).{. XC.a.L p.M.}. X).^.^.^.A.V.B.B.V.S.^.`. X.XM.Z + ",
"+ N z.S.V.Z.A.A.!.^.!.Z.V.V.A.).{. X}.C.s.=.z.Q.).^.^.S.Z.Z.V.B.B.B.V.A.`.{. X XV.p.L u.M. X).^.^.^.A.V.B.B.V.A.^.).{. X{.z.M + ",
"+ z l.A.V.A.^.^.S.S.A.B.V.A.`.{. X X{.V.a.=.z.C.^.^.!.A.B.B.B.B.B.V.Z.^.{. X}.{.V.p.L ,.M.{.^.!.S.S.V.B.B.V.A.^.`.{. X{.^.l.v + ",
"+ g a.V.B.Z.!.S.V.B.B.B.A.`.}. X X{.!.z.p.=.z.C.^.^.Z.B.B.B.B.B.V.A.^.^.{.}.{.^.B.a.L =.z.^.^.A.V.V.B.B.V.S.^.`. X X{.^.A.s.v + ",
"+ g a.B.B.V.Z.V.B.B.V.A.`.{.}. X{.^.!.m.y.P k.A.^.Z.V.B.B.B.B.V.A.^.^.{. X{.^.^.V.a.L =.l.A.Z.V.B.B.B.V.S.^.).{. X).^.!.V.d.v + ",
"+ g a.V.V.V.B.B.B.V.A.^.{. X}.{.!.A.A.l.y.L l.C.!.V.B.B.B.B.V.A.^.^.).}.{.`.^.A.m.u.H ,.l.V.B.B.B.B.B.A.`.`.{.{.{.^.S.A.B.p.g + ",
"+ f p.B.V.V.B.B.B.A.^.'.{.{.'.!.V.B.B.l.=.L p.V.S.V.B.B.B.B.A.!.!.).{.'.^.S.A.B.s.*.n ,.l.V.B.B.B.B.B.A.'.{.{.).^.Z.V.B.f.y.g + ",
"+ 9 *.l.V.V.V.V.V.V.Z.Z.Z.Z.Z.V.B.B.s.p.I H =.l.V.B.B.B.B.V.V.V.V.Z.Z.V.B.B.B.n.l.=.m %.s.V.V.B.B.V.V.V.Z.Z.Z.Z.V.B.B.f.s.p.M + ",
"+ 0 I =.u.u.u.u.p.p.p.p.p.p.p.p.p.y.=.%.L G P =.u.y.y.y.p.p.a.a.a.a.p.y.y.y.y.y.=.%.m K &.a.p.p.a.l.l.l.l.l.s.p.p.u.y.*.=.=.M + ",
"X 5 c f 0 0 0 i f f f f f f f f f f f f 0 7 0 0 0 0 0 0 g v v b b b v 0 0 0 i f f i 7 7 i v v g b Z Z Z Z Z M g f f 0 f f g 5 X ",
". + @ + + + + + + + + + + @ @ + + + + + @ @ @ @ @ @ @ @ @ @ @ @ @ @ @ @ @ @ @ @ @ @ @ @ @ @ @ @ @ @ @ @ @ @ @ + + + + + + + +   "
};
