/* XPM */
static char *c6d1831ee5e04836822a13e48ac3b6b4pDHjKnaY6wLyFBQ9[] = {
/* columns rows colors chars-per-pixel */
"64 64 223 2 ",
"   c None",
".  c #2A150A",
"X  c #36180B",
"o  c #1B222D",
"O  c #1C2533",
"+  c #1E2936",
"@  c #1F2B38",
"#  c #222E3A",
"$  c #242B35",
"%  c #25323D",
"&  c #2B353E",
"*  c #31393F",
"=  c #3F2513",
"-  c #4A160E",
";  c #661512",
":  c #75080D",
">  c #45220E",
",  c #492410",
"<  c #582A13",
"1  c #532A14",
"2  c #7B2614",
"3  c #683419",
"4  c #78381A",
"5  c #6D2916",
"6  c #713E24",
"7  c #443325",
"8  c #664934",
"9  c #784A32",
"0  c #57443C",
"q  c #273641",
"w  c #293741",
"e  c #2C3A44",
"r  c #2E3F49",
"t  c #323D44",
"y  c #303F48",
"u  c #33444C",
"i  c #3C494D",
"p  c #394549",
"a  c #364951",
"s  c #3C4C52",
"d  c #354750",
"f  c #3F5055",
"g  c #424C4E",
"h  c #424F51",
"j  c #455254",
"k  c #4A5453",
"l  c #4B5859",
"z  c #545D5A",
"x  c #565B56",
"c  c #4D4F4C",
"v  c #56615E",
"b  c #5A635E",
"n  c #61665D",
"m  c #596766",
"M  c #4F6163",
"N  c #636B63",
"B  c #676F67",
"V  c #6B7267",
"C  c #75796A",
"Z  c #7A7D6C",
"A  c #727567",
"S  c #6C7C79",
"D  c #6C4E40",
"F  c #890B11",
"G  c #9D0E16",
"H  c #8C1516",
"J  c #991318",
"K  c #80070D",
"L  c #A51118",
"P  c #AB131A",
"I  c #B3151C",
"U  c #BA191F",
"Y  c #B9171D",
"T  c #852916",
"R  c #982A1B",
"E  c #873A1A",
"W  c #9F321E",
"Q  c #A5231D",
"!  c #BF1B21",
"~  c #BA2622",
"^  c #C41D22",
"/  c #C91D22",
"(  c #D21F23",
")  c #CE2225",
"_  c #C82725",
"`  c #D32326",
"'  c #DC2426",
"]  c #DB2628",
"[  c #DD2A2A",
"{  c #D42728",
"}  c #DA3734",
"|  c #E42B2B",
" . c #EB2E2D",
".. c #E02628",
"X. c #ED322E",
"o. c #E7312E",
"O. c #F1342E",
"+. c #ED3531",
"@. c #E83935",
"#. c #F03430",
"$. c #95441F",
"%. c #884825",
"&. c #994A24",
"*. c #9C532C",
"=. c #925532",
"-. c #A14E27",
";. c #A4532A",
":. c #AA562D",
">. c #A8552B",
",. c #B25A2E",
"<. c #B0572D",
"1. c #A85A32",
"2. c #B55D32",
"3. c #BB5A32",
"4. c #AA633A",
"5. c #BA6135",
"6. c #BC6539",
"7. c #BF6A3D",
"8. c #B46338",
"9. c #9D623C",
"0. c #EC433B",
"q. c #E5453C",
"w. c #C3663A",
"e. c #C36B3D",
"r. c #CB673D",
"t. c #CA703E",
"y. c #95674A",
"u. c #A3724E",
"i. c #B77C53",
"p. c #AC6E47",
"a. c #817869",
"s. c #D95248",
"d. c #E44D43",
"f. c #E6574A",
"g. c #E75E50",
"h. c #C96E41",
"j. c #D36D42",
"k. c #C57445",
"l. c #CC7345",
"z. c #CA784A",
"x. c #D27749",
"c. c #D47B4C",
"v. c #D97E4E",
"b. c #D87347",
"n. c #DD7656",
"m. c #E2754B",
"M. c #E76755",
"N. c #E4735D",
"B. c #E77858",
"V. c #E46C48",
"C. c #E67A63",
"Z. c #778379",
"A. c #7F806D",
"S. c #878874",
"D. c #8B8973",
"F. c #AA9578",
"G. c #D5804E",
"H. c #CD8755",
"J. c #D58251",
"K. c #DA8453",
"L. c #DE8A56",
"P. c #DD8D5A",
"I. c #D58D5B",
"U. c #D5925D",
"Y. c #EA8255",
"T. c #E48A58",
"R. c #E3935D",
"E. c #E7985F",
"W. c #F3865A",
"Q. c #D99864",
"!. c #C49975",
"~. c #E5846B",
"^. c #E5876D",
"/. c #E39561",
"(. c #E69B63",
"). c #E99B63",
"_. c #EB9D68",
"`. c #E39E69",
"'. c #E58D71",
"]. c #E79576",
"[. c #F39363",
"{. c #DBA26E",
"}. c #DCAA79",
"|. c #CEA57C",
" X c #ECA46C",
".X c #EEA86F",
"XX c #E4A26D",
"oX c #EDAC74",
"OX c #E5A975",
"+X c #F0AC74",
"@X c #ECB27C",
"#X c #F1A36F",
"$X c #7F938C",
"%X c #9C9C84",
"&X c #87978F",
"*X c #8DA39B",
"=X c #97A699",
"-X c #AFAD91",
";X c #9EB2A5",
":X c #9AAEA2",
">X c #A1B4A6",
",X c #A8B8A6",
"<X c #B2BCA5",
"1X c #BBBEA2",
"2X c #A39F81",
"3X c #D7BD93",
"4X c #D3B48A",
"5X c #EDB782",
"6X c #EBBA86",
"7X c #EABD8A",
"8X c #E7B783",
"9X c #E6A481",
"0X c #BCC0A4",
"qX c #CAC39F",
"wX c #C6C19F",
"eX c #D3C49D",
"rX c #ECC18E",
"tX c #ECC390",
"yX c #C4C3A3",
"uX c #CBC5A1",
"iX c #CEC8A4",
"pX c #D0C7A1",
"aX c #D2C9A3",
/* pixels */
"                                                                                                                                ",
"                                                                                                                                ",
"                                                                                                                                ",
"                                                                                                                                ",
"                                                          X.X.| (                                                               ",
"                                                    O.#.+.X.+.o.` ` ' ....                                                      ",
"                                                O.O.#.X.X.X.X.X.[ ` ' ' ] ] ' ' '                                               ",
"                                            O.#.#.O.0.0.+.0.@.+.o.@.@.| ' ' ' ' ' ' '                                           ",
"                                          O.O.#.d.f.C.M.g.].C.'.^.C.~.d.g.[ ] ' ' ' ' '                                         ",
"                                          #.f.C.C.~.^.0.g.M.M.N.^.~.9XC.C.g.d.d.} ] ' (                                         ",
"                                        O.M.].N.f.M.0.@.0.0.+.@.+.f.M.d.N.M.C.'.d.f.] / I                                       ",
"                                        O.M.f.d.f.C.M.].].'.0.N.M.M.0.@.q.@.q.M.M.N.} Y I                                       ",
"                                        X.0.C.'.'.C.N.N.M.M.0.M.'.N.f.~.^.g.d.@.| s.s.U Y U                                     ",
"                                      X.X.N.^.N.g.g.q.o.X.X.o.+.d.f.f.f.^.^.C.~.f.' { U I Y                                     ",
"                                      X.X.0.0. . . . . . . . . . .| | | @.q.f.C.N.' ` U L I                                     ",
"                                  O.O.| [ | [ [ |  . .| ] ' ] { ) ] ] | ] ' ] ] } ` / Y G P I                                   ",
"                              O.#.[ ) P L J H H Q ~ _ ] [ ] { ) ) / / ) ` / ) ` ` ` U Y L L P                                   ",
"                          O.O.o._ P L L H 2 2 E E T T R R _ { ] ] ] ` ) / / / ! U I I U P L J                                   ",
"                        O.X.[ Y L L L J ; E $.>.;.>.>.>.-.E T Q { ] [ ] ] ) ! Y U Y P Y L L H X                                 ",
"                        #.{ P L L L G ; 5 $.:.7.l.z.z.x.x.k.;.&.E R ~ { ] ] ] ) ^ U Y U L L H .                                 ",
"                      #.[ I L L L L F X 4 $.7.v.P./././././.I.J.6.1.&.W ~ ` ] ] ] ) Y I P L H .                                 ",
"                    #.o.! L L L G F : < 4 < %.z.`.@X6X6X6X6X7X@XOX(.c.1.4 2 Q ` ] ` ) ! P G H .                                 ",
"                    +.{ P P P L G K - > < > > 3 9.i.}.7XtXtXrX6X@XQ.4.3 , X X ; R _ ` / J ; ; .                                 ",
"                    o.U P P P G F : - X 4 4.4.%.3 < 1.{.rXrXOXI.4.4 > , < 9 %.%.3 5 R T X . X .                                 ",
"                    o.^ P P P G F   . , >.c.G.c.p.*.&.k.OXrXOXz.%.3 4 1.z.I.J.G.7.%.E 4 X . X .                                 ",
"                    | { ! ! U P       1 >.1.*.p.p.*.-.5.XXtX7XJ.<.<.2.8.u.u.*.>.e.e.7.;.> . X X                                 ",
"                                      1 4.&.%.8 7 9 2.6.Q.rX@X7.2.e.5.u.8 = 1 %.2.x.J.1.> X . X                                 ",
"                                      < 8.e.l.i.=.k.c.e.Q.@XoXv.c.J.J.P.i.=.p.5.7.J.K.5.1 . X                                   ",
"                                        l.c.L.L.L.R.L.l./.+X_.m.Y.R.(.R.L.K.K.c.P.L.l.2.1 X 3                                   ",
"                                        c./.(._. X XP.l.T.#XW.Y.Y._.oX8X@XOXXX X X/.l.,.< 4                                     ",
"                                        K.). XoX@XoXP.j.Y.[.W.B.Y._.5XtXtX7X6X@XoX(.k.>.4 ;.                                    ",
"                                        K.)..XoX@XoXJ.b.W.[.W.V.j._.rXtXtXtXtX@X XR.h.;.-.>.                                    ",
"                                        c.).oXoX5XOXx./.@X+X[.Y.b.K.5XtXtXtXrX@X_.c.e.;.&.-.                                    ",
"                                        l.R.oXoX7XOXl.`.6X5X.X_.Y.v.@XtXtXtX6X XR.c.e.-.%.                                      ",
"                                          P..XoX7XXXe.l.P.R.x.w.r.c.@XrXtXrXoX XT.x.e.*.                                        ",
"                                          K. XoX@X XL.e.l.x.l.x.c.(.+X6X6X@XoX).P.x.e.1.                                        ",
"                                          c.). X X(.U.H.U.Q.Q.Q.(. XoXoXoXoXoX XR.x.7.&.                                        ",
"                                          t.R.(.I.H.H.Q.OX{.{.{.Q.U.Q.Q.OXoXoX).L.x.5.                                          ",
"                                            L.T.k.k.H.U.`.`.`.`.I.H.H.U.Q.OXoX(.v.l.1.                                          ",
"                                            G.R.J.w.3.3.r.r.j.h.r.r.5.c.`.oX XL.v.e.6 o                                         ",
"                                            l.T.).T.V.V.B.Y.Y.B.V.b.v.).+X+XR.v.x.2.8 + o                                       ",
"                                              k.E.R.T.Y.m.b.b.m.m.T.R. X+X XT.c.5.2.9 # O O +                                   ",
"                                            O 0 H.).(.R.L.G.c.L.R.R.)..X.X/.v.6.<.k.=.c + e i $                                 ",
"                                        % e + $ 4.(. X.X@X8X8XOX X X X X).K.6.<.h.x.5.y.i t b i + O                             ",
"                                      q r e # D 6.z.(..XoX6X6X8XoX.X X).K.5.<.l.K.c.l.z.a.w g N k e u u                         ",
"                                  s d i d % p y.e.,.k.R. X.XoX X).(.L.l.,.<.e.L./.K.c.v.F.M u N Z N d % #                       ",
"                              O t j h v d # B u.w.h.2.5.l.G.K.G.l.e.2.:.5.h.K.(.(.K.c.P.4XZ.s l C S.k e d d a                   ",
"                          O O % k t C S.j & Z.i.w.c.e.2.<.:.<.2.<.,.w.l.x.G.R.).).K.c.{.uXZ.m v i A D.z a e % %                 ",
"                        O # e b x p F.S.b l &XF.6.l.l.6.6.e.h.l.l.x.c.v.L.R.).).).R.L.4XuX&Xv k l S.-XS.t + + + +               ",
"                      # y d l S.n x C V B S *X=Xp.l.x.l.l.c.x.x.x.c.K.R.E.).).).).).XXeXuXS u z Z N C v q O + + q u             ",
"                    z u e e z A A 2Xn v m $X*X=XF.z.x.x.x.c.c.c.K.L.R.E.(.).).).).XX3XaXyXm e m N p & u u % w u d u e           ",
"                    V i d s D.x V 2XC h u &X:X*X>X!.c.c.c.c.L.R.R.R.R.E.(.(.).).XX3XaXaX<Xl + j p + % q d b z j r e e           ",
"                  a j a d f V p N C Z k j =X;X*X;X,X!.I.L.L.R.R.R.R.R.E.(.(.(.OX4XpXpXaX:Xd + % + + # u b %XA e t u u           ",
"                  e i e + q % % u h z % m ;X>X,X>X>X,X-X|.Q.Q.R.R.R.R.(.(.}.4XeXpXpXuXyX=X& O $ t + @ b S.A.z g k d w           ",
"                  u e + + e # e q # # @ $X>X>X1X1X,X;X>X,X1X4X}.}.}.}.4X3XeXpXeXeXuX0XyX=X% O t l e h V C k D.A.j e +           ",
"                e d # O # a e w + O + e &X>X>X1XqX1X<X,X>X>X<XwXqXqXqXuX0XyXqXqXyX1XyXiX=X% + g k v v j b Z %XD.u e #           ",
"                w d + + p l t e + + + s *X>X>X<XuXqXqXyX<X,X,X,X,X<X<X0XyXuXyX0X0XyXuXuX%X% & z k m k j B S.V i e d u           ",
"                e u + + k b * e q # # j :X>X>X>XyXuXqXuXuXyX0X<X<X<X<X0X0X0XyXyXuXuXuXuX&X% k z k z B V z l t e t z j           ",
"              o # e + + g j & x h q u m ;X>X>X>X1XuXuXuXuXuXuXqXqXuXuXuXuXuXuXuXuXuXuXyXm u S.x v z C 2Xk % + t b b z           ",
"              O + i w & z z i n b u h S ;X>X>X>X<XyXuXuXuXuXuXuXqXuXuXuXuXuXuXuXuXuXuX1Xm s %XZ b l S.2Xk + + k A N j           ",
"              O # h e t b z p k k z v &X>X;X;X>X>X1XuXuXuXuXuXqXuXuXuXuXuXuXuXuXuXuXuX1Xl e D.-XZ g Z Z z $ + t N z %           ",
"              O O p p O % g & # k A N *X>X;X>X>X>X,XyXuXqXqXqXqXqXqXqXuXuXuXuXuXuXuXuX1Xj p Z A.Z n N z h % O $ p & #           ",
"                                                                                                                                ",
"                                                                                                                                "
};
